<svg width="24" height="24" viewBox="0 0 24 24" fill="none" xmlns="http://www.w3.org/2000/svg">
<path d="M8.65781 16.553L8.65765 16.5514C8.64448 16.4164 8.74312 16.2915 8.88742 16.2777L8.88857 16.2776C9.01805 16.265 9.14809 16.3675 9.16229 16.5076C9.31334 18.1406 9.78432 19.3788 10.8052 20.1849C11.8078 20.9766 13.2422 21.27 15.12 21.27H15.25C17.3196 21.27 18.8704 20.9092 19.8848 19.8948C20.8992 18.8804 21.26 17.3296 21.26 15.26V8.73998C21.26 6.67035 20.8992 5.11955 19.8848 4.10518C18.8704 3.0908 17.3196 2.72998 15.25 2.72998H15.12C13.2318 2.72998 11.7903 3.02843 10.7867 3.83531C9.76814 4.65428 9.30412 5.91033 9.16275 7.56657C9.15118 7.64767 9.11335 7.70965 9.06793 7.74841C9.02382 7.78605 8.96456 7.80941 8.88633 7.80213L8.88634 7.80202L8.87564 7.80125C8.74625 7.79201 8.63893 7.67631 8.64852 7.52879C8.8121 5.62129 9.40024 4.33018 10.4001 3.50266C11.4112 2.6658 12.9301 2.22998 15.11 2.22998H15.24C17.6375 2.22998 19.23 2.74461 20.2327 3.74728C21.2354 4.74996 21.75 6.3425 21.75 8.73998V15.26C21.75 17.6575 21.2354 19.25 20.2327 20.2527C19.23 21.2554 17.6375 21.77 15.24 21.77H15.11C12.9445 21.77 11.4341 21.3414 10.4249 20.5176C9.42686 19.7029 8.83515 18.432 8.65781 16.553Z" fill="#858688" stroke="#858688"/>
<path d="M14.88 12.25H2C1.86614 12.25 1.75 12.1339 1.75 12C1.75 11.8661 1.86614 11.75 2 11.75H14.88C15.0139 11.75 15.13 11.8661 15.13 12C15.13 12.1382 15.0195 12.25 14.88 12.25Z" fill="#858688" stroke="#858688"/>
<path d="M15.2935 12.3534L15.6471 11.9998L15.2935 11.6463L12.4735 8.82629C12.3788 8.73155 12.3788 8.56814 12.4735 8.4734C12.5683 8.37866 12.7317 8.37866 12.8264 8.4734L16.1764 11.8234C16.2712 11.9181 16.2712 12.0816 16.1764 12.1763L12.8264 15.5263C12.7752 15.5776 12.7145 15.5998 12.65 15.5998C12.5854 15.5998 12.5248 15.5776 12.4735 15.5263C12.3788 15.4316 12.3788 15.2681 12.4735 15.1734L15.2935 12.3534Z" fill="#858688" stroke="#858688"/>
</svg>
